# xmcd
#
# Track frame offsets:
#	150
#	11838
#	27937
#	46134
#	60394
#	75565
#	91301
#	104529
#	119591
#	136466
#	148017
#	164245
#	182544
#	197266
#	216274
#
# Disc length: 3084
#
# Revision: 1
# Processed by: cddbd v1.5.2PL0 Copyright (c) Steve Scherf et al.
# Submitted via: Broken Cross Disk Manager 3.94.2201
#
DISCID=d10c0a0f
DTITLE=Various Artist - Serious Country
DYEAR=2000
DGENRE=
TTITLE0=Chris Ledoux and Garth Brooks - Watcha Gonna Do With A Cowboy
TTITLE1=John Berry - Kiss Me In The Car
TTITLE2=Trace Adkins - Thinking Thing
TTITLE3=Suzy Boguss - Drive South
TTITLE4=Jessi Colter - I'm Not Lisa
TTITLE5=Johnny Rodriguez - I Didn't
TTITLE6=The Ranch - Walkin' The Country
TTITLE7=Billy Dean - If There Hadn't Been You
TTITLE8=Mason Dixon - Exception To The Rule
TTITLE9=Mel McDaniel - Stand Up
TTITLE10=Lacy J.Dalton - Black Coffee
TTITLE11=Tanya Tucker - Little Things
TTITLE12=River Road - Wishfull Thinkin'
TTITLE13=Dan Seals - Addicted
TTITLE14=Steve Wayne Horton - Roll Over
EXTD=
EXTT0=
EXTT1=
EXTT2=
EXTT3=
EXTT4=
EXTT5=
EXTT6=
EXTT7=
EXTT8=
EXTT9=
EXTT10=
EXTT11=
EXTT12=
EXTT13=
EXTT14=
PLAYORDER=
